<?xml version="1.0" standalone="no"?>
<!DOCTYPE svg PUBLIC "-//W3C//DTD SVG 20010904//EN"
 "http://www.w3.org/TR/2001/REC-SVG-20010904/DTD/svg10.dtd">
<!-- 17a5549bea73e5ca -->
<svg version="1.0" xmlns="http://www.w3.org/2000/svg"
 width="1024.000000pt" height="1024.000000pt" viewBox="0 0 1024.000000 1024.000000"
 preserveAspectRatio="xMidYMid meet">
<metadata>
Created by potrace 1.11, written by Peter Selinger 2001-2013
</metadata>
<g transform="translate(0.000000,1024.000000) scale(0.100000,-0.100000)"
fill="#000000" stroke="none">
<path d="M1280 10225 c-156 -25 -351 -91 -480 -162 -409 -227 -677 -591 -777
-1053 -17 -81 -18 -243 -18 -3890 0 -3647 1 -3809 18 -3890 90 -418 316 -753
662 -982 160 -106 341 -181 545 -225 81 -17 243 -18 3890 -18 3647 0 3809 1
3890 18 204 44 385 119 545 225 346 229 572 564 662 982 17 81 18 243 18 3890
0 3647 -1 3809 -18 3890 -90 418 -316 753 -662 982 -154 103 -322 173 -535
224 -72 18 -243 19 -3865 20 -3139 2 -3805 0 -3875 -11z m4105 -1590 c309 -16
686 -94 1005 -208 435 -156 793 -369 1138 -680 158 -143 196 -209 195 -339 -3
-237 -253 -389 -475 -290 -24 10 -88 60 -143 111 -247 229 -529 407 -839 531
-645 258 -1380 288 -2054 84 -404 -122 -777 -335 -1074 -612 -108 -101 -147
-125 -230 -141 -202 -37 -390 118 -390 322 0 127 33 185 183 324 518 478 1182
779 1939 878 227 30 437 35 745 20z m15 -1066 c515 -52 993 -265 1390 -621
166 -149 212 -226 212 -355 0 -204 -188 -359 -390 -322 -86 16 -124 41 -250
160 -319 304 -712 467 -1172 486 -496 20 -962 -153 -1312 -486 -126 -119 -164
-144 -250 -160 -247 -45 -455 195 -375 434 52 153 406 449 736 614 433 218
901 300 1411 250z m-75 -1070 c295 -43 556 -174 781 -391 120 -117 156 -171
173 -260 41 -227 -160 -428 -387 -387 -82 15 -140 50 -222 135 -162 167 -338
244 -560 244 -222 0 -398 -77 -560 -244 -40 -41 -93 -85 -119 -99 -99 -54
-224 -54 -324 1 -159 86 -218 292 -129 455 34 63 226 248 327 315 306 204 659
283 1020 231z m-3915 -11 c75 -23 153 -101 181 -183 12 -33 14 -334 14 -1845
0 -1962 3 -1842 -56 -1923 -136 -189 -422 -148 -510 73 -12 29 -14 318 -17
1814 -1 1144 1 1799 8 1833 13 72 35 115 81 162 81 80 182 104 299 69z m7610
0 c75 -23 153 -101 181 -183 12 -33 14 -334 14 -1845 0 -1962 3 -1842 -56
-1923 -136 -189 -422 -148 -510 73 -12 29 -14 318 -17 1814 -1 1144 1 1799 8
1833 13 72 35 115 81 162 81 80 182 104 299 69z m-3763 -1140 c248 -91 317
-422 127 -612 -146 -146 -382 -146 -528 0 -146 146 -146 382 0 528 106 106
256 138 401 84z m2697 -2068 c190 -28 348 -186 376 -376 13 -90 13 -898 0
-988 -28 -190 -186 -348 -376 -376 -95 -13 -5573 -13 -5668 0 -190 28 -348
186 -376 376 -13 90 -13 898 0 988 27 186 187 349 367 375 85 12 5591 13 5677
1z"/>
<path d="M3517 2829 c-206 -70 -330 -275 -297 -486 35 -217 216 -373 434 -373
190 0 347 108 417 288 32 81 32 223 0 304 -71 181 -228 289 -420 288 -49 -1
-96 -8 -134 -21z"/>
<path d="M4985 2833 c-78 -28 -139 -68 -190 -125 -78 -87 -115 -183 -115 -299
0 -173 99 -327 258 -402 63 -30 74 -32 182 -32 108 0 119 2 182 32 160 75 258
229 258 403 0 174 -99 328 -258 403 -59 28 -79 32 -167 34 -77 3 -112 -1 -150
-14z"/>
<path d="M6443 2829 c-77 -24 -175 -96 -219 -162 -58 -84 -78 -150 -78 -257 0
-75 5 -107 23 -152 70 -180 227 -288 417 -288 218 0 399 156 434 373 27 170
-55 351 -202 443 -102 64 -253 82 -375 43z"/>
</g>
</svg>
